<?xml version="1.0" encoding="utf-8"?>
<!-- Generator: Adobe Illustrator 16.0.0, SVG Export Plug-In . SVG Version: 6.00 Build 0)  -->
<!DOCTYPE svg PUBLIC "-//W3C//DTD SVG 1.1//EN" "http://www.w3.org/Graphics/SVG/1.1/DTD/svg11.dtd">
<svg version="1.1" id="Ebene_1" xmlns="http://www.w3.org/2000/svg" xmlns:xlink="http://www.w3.org/1999/xlink" x="0px" y="0px"
	 width="42px" height="42px" viewBox="291 338 42 42" enable-background="new 291 338 42 42" xml:space="preserve">
<path d="M312.17,359.484c5.734,0,10.383-4.648,10.383-10.383s-4.648-10.383-10.383-10.383c-5.735,0-10.383,4.648-10.383,10.383
	S306.435,359.484,312.17,359.484z M319.941,362.129l-3.878,15.525l-2.596-11.032l2.596-4.542h-7.787l2.596,4.542l-2.596,11.032
	l-3.877-15.525c-5.784,0.276-10.399,5.004-10.399,10.853v3.375c0,2.149,1.744,3.894,3.894,3.894h28.553
	c2.149,0,3.894-1.744,3.894-3.894v-3.375C330.34,367.133,325.725,362.405,319.941,362.129L319.941,362.129z"/>
</svg>
