<?xml version="1.0" encoding="utf-8"?>
<!-- Generator: Adobe Illustrator 16.0.0, SVG Export Plug-In . SVG Version: 6.00 Build 0)  -->
<!DOCTYPE svg PUBLIC "-//W3C//DTD SVG 1.1//EN" "http://www.w3.org/Graphics/SVG/1.1/DTD/svg11.dtd">
<svg version="1.1" id="Ebene_1" xmlns="http://www.w3.org/2000/svg" xmlns:xlink="http://www.w3.org/1999/xlink" x="0px" y="0px"
	 width="42px" height="42px" viewBox="291 338 42 42" enable-background="new 291 338 42 42" xml:space="preserve">
<path d="M328.554,339h-32.608c-2.457,0-4.448,1.991-4.448,4.447v32.608c0,2.456,1.991,4.447,4.448,4.447h32.608
	c2.455,0,4.446-1.991,4.446-4.447v-32.608C333,340.991,331.009,339,328.554,339z M307.999,360.316
	c-8.401-6.097-8.315-6.112-10.572-7.868v-2.332c0-1.228,0.996-2.223,2.223-2.223h25.197c1.229,0,2.224,0.996,2.224,2.223v2.332
	c-2.258,1.757-2.171,1.771-10.571,7.868c-0.973,0.709-2.908,2.42-4.251,2.399C310.905,362.735,308.973,361.026,307.999,360.316z
	 M327.071,356.21v13.175c0,1.228-0.995,2.223-2.224,2.223H299.65c-1.228,0-2.223-0.996-2.223-2.223V356.21
	c1.293,1,3.088,2.337,8.829,6.504c1.312,0.958,3.518,2.978,5.993,2.965c2.491,0.013,4.728-2.042,5.995-2.967
	C323.983,358.547,325.778,357.209,327.071,356.21z"/>
</svg>
