<?xml version="1.0" encoding="utf-8"?>
<!-- Generator: Adobe Illustrator 16.0.0, SVG Export Plug-In . SVG Version: 6.00 Build 0)  -->
<!DOCTYPE svg PUBLIC "-//W3C//DTD SVG 1.1//EN" "http://www.w3.org/Graphics/SVG/1.1/DTD/svg11.dtd">
<svg version="1.1" id="Ebene_1" xmlns="http://www.w3.org/2000/svg" xmlns:xlink="http://www.w3.org/1999/xlink" x="0px" y="0px"
	 width="42px" height="42px" viewBox="291 338 42 42" enable-background="new 291 338 42 42" xml:space="preserve">
<path d="M330.696,363.031c0.271-1.309,0.438-2.702,0.438-4.094c0-10.608-8.59-19.188-19.188-19.188
	c-1.393,0-2.775,0.159-4.094,0.439c-1.776-1.374-3.982-2.188-6.384-2.188c-5.776,0-10.468,4.692-10.468,10.469
	c0,2.401,0.814,4.607,2.178,6.375c-0.271,1.308-0.439,2.701-0.439,4.093c0,10.609,8.589,19.189,19.189,19.189
	c1.393,0,2.776-0.158,4.094-0.439c1.776,1.365,3.981,2.178,6.375,2.178c5.775,0,10.468-4.692,10.468-10.468
	C332.873,367.003,332.061,364.797,330.696,363.031L330.696,363.031z M312.507,371.583c-6.131,0-11.262-2.729-11.262-6.075
	c0-1.495,0.84-2.86,2.757-2.86c2.916,0,3.187,4.197,8.234,4.197c2.401,0,3.953-1.065,3.953-2.458c0-1.748-1.495-2.019-3.925-2.617
	c-5.842-1.44-11.01-2.057-11.01-8.151c0-5.533,5.476-7.58,10.196-7.58c5.15,0,10.356,2.047,10.356,5.178
	c0,1.58-1.064,2.973-2.831,2.973c-2.646,0-2.729-3.131-7.011-3.131c-2.402,0-3.926,0.654-3.926,2.103
	c0,1.851,1.944,2.038,6.459,3.084c3.869,0.869,8.478,2.505,8.478,7.253C322.976,369.022,317.639,371.583,312.507,371.583
	L312.507,371.583z"/>
</svg>
