<?xml version="1.0" encoding="utf-8"?>
<!-- Generator: Adobe Illustrator 16.0.0, SVG Export Plug-In . SVG Version: 6.00 Build 0)  -->
<!DOCTYPE svg PUBLIC "-//W3C//DTD SVG 1.1//EN" "http://www.w3.org/Graphics/SVG/1.1/DTD/svg11.dtd">
<svg version="1.1" id="Ebene_1" xmlns="http://www.w3.org/2000/svg" xmlns:xlink="http://www.w3.org/1999/xlink" x="0px" y="0px"
	 width="42px" height="42px" viewBox="291 338 42 42" enable-background="new 291 338 42 42" xml:space="preserve">
<path d="M328.457,338h-32.913c-2.478,0-4.488,2.009-4.488,4.488V375.4c0,2.479,2.01,4.488,4.488,4.488h32.913
	c2.477,0,4.486-2.009,4.486-4.488v-32.912C332.943,340.009,330.934,338,328.457,338z M299.845,373.904
	c-0.658,0-1.222-0.456-1.368-1.087l-1.402-6.077c-0.152-0.662,0.191-1.337,0.814-1.605l6.545-2.804
	c0.575-0.247,1.243-0.083,1.638,0.4l2.898,3.542c4.576-2.146,8.258-5.877,10.357-10.358l-3.541-2.897
	c-0.482-0.396-0.646-1.063-0.402-1.638l2.807-6.545c0.268-0.623,0.941-0.966,1.604-0.814l6.078,1.402
	c0.635,0.147,1.088,0.713,1.088,1.367C326.961,361.776,314.809,373.904,299.845,373.904z"/>
</svg>
